<mxfile host="app.diagrams.net" modified="2023-08-18T18:49:05.725Z" agent="Mozilla/5.0 (Windows NT 10.0; Win64; x64) AppleWebKit/537.36 (KHTML, like Gecko) Chrome/109.0.0.0 Safari/537.36" etag="8d_j-i7GMRWiYiH6dg0J" version="21.6.2" type="github">
  <diagram id="C5RBs43oDa-KdzZeNtuy" name="Page-1">
    <mxGraphModel dx="2342" dy="603" grid="1" gridSize="10" guides="1" tooltips="1" connect="1" arrows="1" fold="1" page="1" pageScale="1" pageWidth="1169" pageHeight="827" math="0" shadow="0">
      <root>
        <mxCell id="WIyWlLk6GJQsqaUBKTNV-0" />
        <mxCell id="WIyWlLk6GJQsqaUBKTNV-1" parent="WIyWlLk6GJQsqaUBKTNV-0" />
        <mxCell id="DTrx7gqVWEQef8-JDWX5-1" value="Field" style="rounded=0;whiteSpace=wrap;html=1;" vertex="1" parent="WIyWlLk6GJQsqaUBKTNV-1">
          <mxGeometry x="340" y="10" width="120" height="20" as="geometry" />
        </mxCell>
        <mxCell id="DTrx7gqVWEQef8-JDWX5-11" value="Name" style="rounded=0;whiteSpace=wrap;html=1;" vertex="1" parent="WIyWlLk6GJQsqaUBKTNV-1">
          <mxGeometry x="-120" y="120" width="120" height="30" as="geometry" />
        </mxCell>
        <mxCell id="DTrx7gqVWEQef8-JDWX5-18" style="edgeStyle=orthogonalEdgeStyle;rounded=0;orthogonalLoop=1;jettySize=auto;html=1;exitX=0.5;exitY=0;exitDx=0;exitDy=0;entryX=0.425;entryY=-0.133;entryDx=0;entryDy=0;entryPerimeter=0;" edge="1" parent="WIyWlLk6GJQsqaUBKTNV-1" source="DTrx7gqVWEQef8-JDWX5-12" target="DTrx7gqVWEQef8-JDWX5-12">
          <mxGeometry relative="1" as="geometry" />
        </mxCell>
        <mxCell id="DTrx7gqVWEQef8-JDWX5-12" value="value()" style="rounded=0;whiteSpace=wrap;html=1;align=left;" vertex="1" parent="WIyWlLk6GJQsqaUBKTNV-1">
          <mxGeometry x="-120" y="150" width="120" height="30" as="geometry" />
        </mxCell>
        <mxCell id="DTrx7gqVWEQef8-JDWX5-13" value="Phone" style="rounded=0;whiteSpace=wrap;html=1;" vertex="1" parent="WIyWlLk6GJQsqaUBKTNV-1">
          <mxGeometry x="60" y="120" width="120" height="30" as="geometry" />
        </mxCell>
        <mxCell id="DTrx7gqVWEQef8-JDWX5-14" value="value()" style="rounded=0;whiteSpace=wrap;html=1;align=left;" vertex="1" parent="WIyWlLk6GJQsqaUBKTNV-1">
          <mxGeometry x="60" y="150" width="120" height="30" as="geometry" />
        </mxCell>
        <mxCell id="DTrx7gqVWEQef8-JDWX5-15" value="Birthday" style="rounded=0;whiteSpace=wrap;html=1;" vertex="1" parent="WIyWlLk6GJQsqaUBKTNV-1">
          <mxGeometry x="220" y="120" width="120" height="30" as="geometry" />
        </mxCell>
        <mxCell id="DTrx7gqVWEQef8-JDWX5-16" value="value()" style="rounded=0;whiteSpace=wrap;html=1;align=left;" vertex="1" parent="WIyWlLk6GJQsqaUBKTNV-1">
          <mxGeometry x="220" y="150" width="120" height="30" as="geometry" />
        </mxCell>
        <mxCell id="DTrx7gqVWEQef8-JDWX5-20" value="" style="edgeStyle=orthogonalEdgeStyle;rounded=0;orthogonalLoop=1;jettySize=auto;html=1;" edge="1" parent="WIyWlLk6GJQsqaUBKTNV-1" source="DTrx7gqVWEQef8-JDWX5-17" target="DTrx7gqVWEQef8-JDWX5-19">
          <mxGeometry relative="1" as="geometry" />
        </mxCell>
        <mxCell id="DTrx7gqVWEQef8-JDWX5-17" value="Address" style="rounded=0;whiteSpace=wrap;html=1;" vertex="1" parent="WIyWlLk6GJQsqaUBKTNV-1">
          <mxGeometry x="380" y="120" width="120" height="30" as="geometry" />
        </mxCell>
        <mxCell id="DTrx7gqVWEQef8-JDWX5-19" value="value()" style="whiteSpace=wrap;html=1;rounded=0;align=left;" vertex="1" parent="WIyWlLk6GJQsqaUBKTNV-1">
          <mxGeometry x="380" y="150" width="120" height="30" as="geometry" />
        </mxCell>
        <mxCell id="DTrx7gqVWEQef8-JDWX5-21" value="Email" style="rounded=0;whiteSpace=wrap;html=1;" vertex="1" parent="WIyWlLk6GJQsqaUBKTNV-1">
          <mxGeometry x="540" y="120" width="120" height="30" as="geometry" />
        </mxCell>
        <mxCell id="DTrx7gqVWEQef8-JDWX5-24" style="edgeStyle=orthogonalEdgeStyle;rounded=0;orthogonalLoop=1;jettySize=auto;html=1;exitX=0.5;exitY=1;exitDx=0;exitDy=0;" edge="1" parent="WIyWlLk6GJQsqaUBKTNV-1">
          <mxGeometry relative="1" as="geometry">
            <mxPoint x="600" y="210" as="sourcePoint" />
            <mxPoint x="600" y="210" as="targetPoint" />
          </mxGeometry>
        </mxCell>
        <mxCell id="DTrx7gqVWEQef8-JDWX5-26" style="edgeStyle=orthogonalEdgeStyle;rounded=0;orthogonalLoop=1;jettySize=auto;html=1;exitX=0.5;exitY=1;exitDx=0;exitDy=0;" edge="1" parent="WIyWlLk6GJQsqaUBKTNV-1">
          <mxGeometry relative="1" as="geometry">
            <mxPoint x="600" y="210" as="sourcePoint" />
            <mxPoint x="600" y="210" as="targetPoint" />
          </mxGeometry>
        </mxCell>
        <mxCell id="DTrx7gqVWEQef8-JDWX5-27" value="value()" style="rounded=0;whiteSpace=wrap;html=1;align=left;" vertex="1" parent="WIyWlLk6GJQsqaUBKTNV-1">
          <mxGeometry x="540" y="150" width="120" height="30" as="geometry" />
        </mxCell>
        <mxCell id="DTrx7gqVWEQef8-JDWX5-48" value="" style="endArrow=none;html=1;rounded=0;" edge="1" parent="WIyWlLk6GJQsqaUBKTNV-1">
          <mxGeometry width="50" height="50" relative="1" as="geometry">
            <mxPoint x="-60" y="90" as="sourcePoint" />
            <mxPoint x="600" y="90" as="targetPoint" />
            <Array as="points" />
          </mxGeometry>
        </mxCell>
        <mxCell id="DTrx7gqVWEQef8-JDWX5-55" value="-value" style="rounded=0;whiteSpace=wrap;html=1;align=left;" vertex="1" parent="WIyWlLk6GJQsqaUBKTNV-1">
          <mxGeometry x="340" y="30" width="120" height="30" as="geometry" />
        </mxCell>
        <mxCell id="DTrx7gqVWEQef8-JDWX5-60" value="" style="endArrow=classic;html=1;rounded=0;" edge="1" parent="WIyWlLk6GJQsqaUBKTNV-1">
          <mxGeometry width="50" height="50" relative="1" as="geometry">
            <mxPoint x="400" y="90" as="sourcePoint" />
            <mxPoint x="400" y="60" as="targetPoint" />
            <Array as="points" />
          </mxGeometry>
        </mxCell>
        <mxCell id="DTrx7gqVWEQef8-JDWX5-61" value="days_to_birthday()" style="rounded=0;whiteSpace=wrap;html=1;align=left;" vertex="1" parent="WIyWlLk6GJQsqaUBKTNV-1">
          <mxGeometry x="220" y="180" width="120" height="30" as="geometry" />
        </mxCell>
        <mxCell id="DTrx7gqVWEQef8-JDWX5-63" value="Tag" style="swimlane;fontStyle=0;childLayout=stackLayout;horizontal=1;startSize=30;horizontalStack=0;resizeParent=1;resizeParentMax=0;resizeLast=0;collapsible=1;marginBottom=0;whiteSpace=wrap;html=1;" vertex="1" parent="WIyWlLk6GJQsqaUBKTNV-1">
          <mxGeometry x="740" y="80" width="140" height="90" as="geometry" />
        </mxCell>
        <mxCell id="DTrx7gqVWEQef8-JDWX5-64" value="-value" style="text;strokeColor=none;fillColor=none;align=left;verticalAlign=middle;spacingLeft=4;spacingRight=4;overflow=hidden;points=[[0,0.5],[1,0.5]];portConstraint=eastwest;rotatable=0;whiteSpace=wrap;html=1;" vertex="1" parent="DTrx7gqVWEQef8-JDWX5-63">
          <mxGeometry y="30" width="140" height="30" as="geometry" />
        </mxCell>
        <mxCell id="DTrx7gqVWEQef8-JDWX5-65" value="sz()" style="text;strokeColor=none;fillColor=none;align=left;verticalAlign=middle;spacingLeft=4;spacingRight=4;overflow=hidden;points=[[0,0.5],[1,0.5]];portConstraint=eastwest;rotatable=0;whiteSpace=wrap;html=1;" vertex="1" parent="DTrx7gqVWEQef8-JDWX5-63">
          <mxGeometry y="60" width="140" height="30" as="geometry" />
        </mxCell>
        <mxCell id="DTrx7gqVWEQef8-JDWX5-101" value="" style="endArrow=none;html=1;edgeStyle=orthogonalEdgeStyle;rounded=0;exitX=0.5;exitY=0;exitDx=0;exitDy=0;" edge="1" parent="DTrx7gqVWEQef8-JDWX5-63" source="DTrx7gqVWEQef8-JDWX5-63">
          <mxGeometry relative="1" as="geometry">
            <mxPoint x="-10" y="-0.5" as="sourcePoint" />
            <mxPoint x="70" y="-40" as="targetPoint" />
          </mxGeometry>
        </mxCell>
        <mxCell id="DTrx7gqVWEQef8-JDWX5-67" value="Note" style="swimlane;fontStyle=0;childLayout=stackLayout;horizontal=1;startSize=30;horizontalStack=0;resizeParent=1;resizeParentMax=0;resizeLast=0;collapsible=1;marginBottom=0;whiteSpace=wrap;html=1;" vertex="1" parent="WIyWlLk6GJQsqaUBKTNV-1">
          <mxGeometry x="970" y="80" width="140" height="60" as="geometry" />
        </mxCell>
        <mxCell id="DTrx7gqVWEQef8-JDWX5-68" value="value" style="text;strokeColor=none;fillColor=none;align=left;verticalAlign=middle;spacingLeft=4;spacingRight=4;overflow=hidden;points=[[0,0.5],[1,0.5]];portConstraint=eastwest;rotatable=0;whiteSpace=wrap;html=1;" vertex="1" parent="DTrx7gqVWEQef8-JDWX5-67">
          <mxGeometry y="30" width="140" height="30" as="geometry" />
        </mxCell>
        <mxCell id="DTrx7gqVWEQef8-JDWX5-71" value="-value" style="rounded=0;whiteSpace=wrap;html=1;align=left;" vertex="1" parent="WIyWlLk6GJQsqaUBKTNV-1">
          <mxGeometry x="740" y="110" width="140" height="30" as="geometry" />
        </mxCell>
        <mxCell id="DTrx7gqVWEQef8-JDWX5-72" value="link()" style="rounded=0;whiteSpace=wrap;html=1;align=left;" vertex="1" parent="WIyWlLk6GJQsqaUBKTNV-1">
          <mxGeometry x="740" y="170" width="140" height="30" as="geometry" />
        </mxCell>
        <mxCell id="DTrx7gqVWEQef8-JDWX5-73" value="unlink()" style="rounded=0;whiteSpace=wrap;html=1;align=left;" vertex="1" parent="WIyWlLk6GJQsqaUBKTNV-1">
          <mxGeometry x="740" y="200" width="140" height="30" as="geometry" />
        </mxCell>
        <mxCell id="DTrx7gqVWEQef8-JDWX5-74" value="key" style="rounded=0;whiteSpace=wrap;html=1;align=left;" vertex="1" parent="WIyWlLk6GJQsqaUBKTNV-1">
          <mxGeometry x="970" y="140" width="140" height="30" as="geometry" />
        </mxCell>
        <mxCell id="DTrx7gqVWEQef8-JDWX5-75" value="link()" style="rounded=0;whiteSpace=wrap;html=1;align=left;" vertex="1" parent="WIyWlLk6GJQsqaUBKTNV-1">
          <mxGeometry x="970" y="170" width="140" height="30" as="geometry" />
        </mxCell>
        <mxCell id="DTrx7gqVWEQef8-JDWX5-76" value="unlink()" style="rounded=0;whiteSpace=wrap;html=1;align=left;" vertex="1" parent="WIyWlLk6GJQsqaUBKTNV-1">
          <mxGeometry x="970" y="200" width="140" height="30" as="geometry" />
        </mxCell>
        <mxCell id="DTrx7gqVWEQef8-JDWX5-86" value="" style="endArrow=block;endSize=16;endFill=0;html=1;rounded=0;entryX=0.5;entryY=1;entryDx=0;entryDy=0;" edge="1" parent="WIyWlLk6GJQsqaUBKTNV-1" target="DTrx7gqVWEQef8-JDWX5-55">
          <mxGeometry width="160" relative="1" as="geometry">
            <mxPoint x="400" y="90" as="sourcePoint" />
            <mxPoint x="450" y="90" as="targetPoint" />
          </mxGeometry>
        </mxCell>
        <mxCell id="DTrx7gqVWEQef8-JDWX5-88" value="" style="endArrow=block;endSize=16;endFill=0;html=1;rounded=0;entryX=1;entryY=0.25;entryDx=0;entryDy=0;" edge="1" parent="WIyWlLk6GJQsqaUBKTNV-1" target="DTrx7gqVWEQef8-JDWX5-55">
          <mxGeometry width="160" relative="1" as="geometry">
            <mxPoint x="1040" y="40" as="sourcePoint" />
            <mxPoint x="490" y="40" as="targetPoint" />
          </mxGeometry>
        </mxCell>
        <mxCell id="DTrx7gqVWEQef8-JDWX5-95" value="" style="endArrow=none;html=1;edgeStyle=orthogonalEdgeStyle;rounded=0;" edge="1" parent="WIyWlLk6GJQsqaUBKTNV-1">
          <mxGeometry relative="1" as="geometry">
            <mxPoint x="1039.5" y="80" as="sourcePoint" />
            <mxPoint x="1039.5" y="40" as="targetPoint" />
            <Array as="points">
              <mxPoint x="1039.5" y="80" />
            </Array>
          </mxGeometry>
        </mxCell>
        <mxCell id="DTrx7gqVWEQef8-JDWX5-104" value="" style="endArrow=none;html=1;edgeStyle=orthogonalEdgeStyle;rounded=0;" edge="1" parent="WIyWlLk6GJQsqaUBKTNV-1" source="DTrx7gqVWEQef8-JDWX5-11">
          <mxGeometry relative="1" as="geometry">
            <mxPoint x="-60" y="-40" as="sourcePoint" />
            <mxPoint x="-60" y="90" as="targetPoint" />
          </mxGeometry>
        </mxCell>
        <mxCell id="DTrx7gqVWEQef8-JDWX5-107" value="" style="endArrow=none;html=1;edgeStyle=orthogonalEdgeStyle;rounded=0;" edge="1" parent="WIyWlLk6GJQsqaUBKTNV-1" source="DTrx7gqVWEQef8-JDWX5-13">
          <mxGeometry relative="1" as="geometry">
            <mxPoint x="120" y="-40" as="sourcePoint" />
            <mxPoint x="120" y="90" as="targetPoint" />
          </mxGeometry>
        </mxCell>
        <mxCell id="DTrx7gqVWEQef8-JDWX5-110" value="" style="endArrow=none;html=1;edgeStyle=orthogonalEdgeStyle;rounded=0;" edge="1" parent="WIyWlLk6GJQsqaUBKTNV-1">
          <mxGeometry relative="1" as="geometry">
            <mxPoint x="270" y="120" as="sourcePoint" />
            <mxPoint x="270" y="90" as="targetPoint" />
            <Array as="points">
              <mxPoint x="270" y="120" />
            </Array>
          </mxGeometry>
        </mxCell>
        <mxCell id="DTrx7gqVWEQef8-JDWX5-113" value="" style="endArrow=none;html=1;edgeStyle=orthogonalEdgeStyle;rounded=0;exitX=0.5;exitY=0;exitDx=0;exitDy=0;" edge="1" parent="WIyWlLk6GJQsqaUBKTNV-1" source="DTrx7gqVWEQef8-JDWX5-17">
          <mxGeometry relative="1" as="geometry">
            <mxPoint x="440" y="110" as="sourcePoint" />
            <mxPoint x="440" y="90" as="targetPoint" />
            <Array as="points" />
          </mxGeometry>
        </mxCell>
        <mxCell id="DTrx7gqVWEQef8-JDWX5-116" value="" style="endArrow=none;html=1;edgeStyle=orthogonalEdgeStyle;rounded=0;" edge="1" parent="WIyWlLk6GJQsqaUBKTNV-1">
          <mxGeometry relative="1" as="geometry">
            <mxPoint x="600" y="120" as="sourcePoint" />
            <mxPoint x="600" y="90" as="targetPoint" />
          </mxGeometry>
        </mxCell>
        <mxCell id="DTrx7gqVWEQef8-JDWX5-119" value="Record" style="swimlane;fontStyle=1;align=center;verticalAlign=top;childLayout=stackLayout;horizontal=1;startSize=26;horizontalStack=0;resizeParent=1;resizeParentMax=0;resizeLast=0;collapsible=1;marginBottom=0;whiteSpace=wrap;html=1;" vertex="1" parent="WIyWlLk6GJQsqaUBKTNV-1">
          <mxGeometry x="-40" y="294" width="160" height="90" as="geometry" />
        </mxCell>
        <mxCell id="DTrx7gqVWEQef8-JDWX5-120" value="+name" style="text;strokeColor=none;fillColor=none;align=left;verticalAlign=top;spacingLeft=4;spacingRight=4;overflow=hidden;rotatable=0;points=[[0,0.5],[1,0.5]];portConstraint=eastwest;whiteSpace=wrap;html=1;" vertex="1" parent="DTrx7gqVWEQef8-JDWX5-119">
          <mxGeometry y="26" width="160" height="26" as="geometry" />
        </mxCell>
        <mxCell id="DTrx7gqVWEQef8-JDWX5-121" value="" style="line;strokeWidth=1;fillColor=none;align=left;verticalAlign=middle;spacingTop=-1;spacingLeft=3;spacingRight=3;rotatable=0;labelPosition=right;points=[];portConstraint=eastwest;strokeColor=inherit;" vertex="1" parent="DTrx7gqVWEQef8-JDWX5-119">
          <mxGeometry y="52" width="160" height="10" as="geometry" />
        </mxCell>
        <mxCell id="DTrx7gqVWEQef8-JDWX5-122" value="+email" style="text;strokeColor=none;fillColor=none;align=left;verticalAlign=top;spacingLeft=4;spacingRight=4;overflow=hidden;rotatable=0;points=[[0,0.5],[1,0.5]];portConstraint=eastwest;whiteSpace=wrap;html=1;" vertex="1" parent="DTrx7gqVWEQef8-JDWX5-119">
          <mxGeometry y="62" width="160" height="28" as="geometry" />
        </mxCell>
        <mxCell id="DTrx7gqVWEQef8-JDWX5-123" value="+birthday" style="html=1;whiteSpace=wrap;align=left;" vertex="1" parent="WIyWlLk6GJQsqaUBKTNV-1">
          <mxGeometry x="-40" y="384" width="160" height="36" as="geometry" />
        </mxCell>
        <mxCell id="DTrx7gqVWEQef8-JDWX5-124" value="+address" style="html=1;whiteSpace=wrap;align=left;" vertex="1" parent="WIyWlLk6GJQsqaUBKTNV-1">
          <mxGeometry x="-40" y="420" width="160" height="30" as="geometry" />
        </mxCell>
        <mxCell id="DTrx7gqVWEQef8-JDWX5-125" value="+phones" style="html=1;whiteSpace=wrap;align=left;" vertex="1" parent="WIyWlLk6GJQsqaUBKTNV-1">
          <mxGeometry x="-40" y="450" width="160" height="30" as="geometry" />
        </mxCell>
        <mxCell id="DTrx7gqVWEQef8-JDWX5-126" value="edit_birthda()" style="html=1;whiteSpace=wrap;align=left;" vertex="1" parent="WIyWlLk6GJQsqaUBKTNV-1">
          <mxGeometry x="-40" y="480" width="160" height="30" as="geometry" />
        </mxCell>
        <mxCell id="DTrx7gqVWEQef8-JDWX5-127" value="edit_email()" style="html=1;whiteSpace=wrap;align=left;" vertex="1" parent="WIyWlLk6GJQsqaUBKTNV-1">
          <mxGeometry x="-40" y="510" width="160" height="30" as="geometry" />
        </mxCell>
        <mxCell id="DTrx7gqVWEQef8-JDWX5-128" value="edit_address()" style="html=1;whiteSpace=wrap;align=left;" vertex="1" parent="WIyWlLk6GJQsqaUBKTNV-1">
          <mxGeometry x="-40" y="540" width="160" height="30" as="geometry" />
        </mxCell>
        <mxCell id="DTrx7gqVWEQef8-JDWX5-129" value="add_phone()" style="html=1;whiteSpace=wrap;align=left;" vertex="1" parent="WIyWlLk6GJQsqaUBKTNV-1">
          <mxGeometry x="-40" y="570" width="160" height="30" as="geometry" />
        </mxCell>
        <mxCell id="DTrx7gqVWEQef8-JDWX5-130" value="del_phone()" style="html=1;whiteSpace=wrap;align=left;" vertex="1" parent="WIyWlLk6GJQsqaUBKTNV-1">
          <mxGeometry x="-40" y="600" width="160" height="30" as="geometry" />
        </mxCell>
        <mxCell id="DTrx7gqVWEQef8-JDWX5-131" value="edit_phone()" style="html=1;whiteSpace=wrap;align=left;" vertex="1" parent="WIyWlLk6GJQsqaUBKTNV-1">
          <mxGeometry x="-40" y="630" width="160" height="30" as="geometry" />
        </mxCell>
        <mxCell id="DTrx7gqVWEQef8-JDWX5-132" value="AddressBook" style="swimlane;fontStyle=1;align=center;verticalAlign=top;childLayout=stackLayout;horizontal=1;startSize=26;horizontalStack=0;resizeParent=1;resizeParentMax=0;resizeLast=0;collapsible=1;marginBottom=0;whiteSpace=wrap;html=1;" vertex="1" parent="WIyWlLk6GJQsqaUBKTNV-1">
          <mxGeometry x="260" y="294" width="160" height="86" as="geometry" />
        </mxCell>
        <mxCell id="DTrx7gqVWEQef8-JDWX5-133" value="----" style="text;strokeColor=none;fillColor=none;align=left;verticalAlign=top;spacingLeft=4;spacingRight=4;overflow=hidden;rotatable=0;points=[[0,0.5],[1,0.5]];portConstraint=eastwest;whiteSpace=wrap;html=1;" vertex="1" parent="DTrx7gqVWEQef8-JDWX5-132">
          <mxGeometry y="26" width="160" height="26" as="geometry" />
        </mxCell>
        <mxCell id="DTrx7gqVWEQef8-JDWX5-134" value="" style="line;strokeWidth=1;fillColor=none;align=left;verticalAlign=middle;spacingTop=-1;spacingLeft=3;spacingRight=3;rotatable=0;labelPosition=right;points=[];portConstraint=eastwest;strokeColor=inherit;" vertex="1" parent="DTrx7gqVWEQef8-JDWX5-132">
          <mxGeometry y="52" width="160" height="8" as="geometry" />
        </mxCell>
        <mxCell id="DTrx7gqVWEQef8-JDWX5-135" value="search()" style="text;strokeColor=none;fillColor=none;align=left;verticalAlign=top;spacingLeft=4;spacingRight=4;overflow=hidden;rotatable=0;points=[[0,0.5],[1,0.5]];portConstraint=eastwest;whiteSpace=wrap;html=1;" vertex="1" parent="DTrx7gqVWEQef8-JDWX5-132">
          <mxGeometry y="60" width="160" height="26" as="geometry" />
        </mxCell>
        <mxCell id="DTrx7gqVWEQef8-JDWX5-136" value="get_list_birthday()" style="html=1;whiteSpace=wrap;align=left;" vertex="1" parent="WIyWlLk6GJQsqaUBKTNV-1">
          <mxGeometry x="260" y="380" width="160" height="30" as="geometry" />
        </mxCell>
        <mxCell id="DTrx7gqVWEQef8-JDWX5-137" value="add_record()" style="html=1;whiteSpace=wrap;align=left;" vertex="1" parent="WIyWlLk6GJQsqaUBKTNV-1">
          <mxGeometry x="260" y="410" width="160" height="30" as="geometry" />
        </mxCell>
        <mxCell id="DTrx7gqVWEQef8-JDWX5-138" value="rename_record()" style="html=1;whiteSpace=wrap;align=left;" vertex="1" parent="WIyWlLk6GJQsqaUBKTNV-1">
          <mxGeometry x="260" y="440" width="160" height="30" as="geometry" />
        </mxCell>
        <mxCell id="DTrx7gqVWEQef8-JDWX5-139" value="load_database()" style="html=1;whiteSpace=wrap;align=left;" vertex="1" parent="WIyWlLk6GJQsqaUBKTNV-1">
          <mxGeometry x="260" y="470" width="160" height="30" as="geometry" />
        </mxCell>
        <mxCell id="DTrx7gqVWEQef8-JDWX5-140" value="save_database()" style="html=1;whiteSpace=wrap;align=left;" vertex="1" parent="WIyWlLk6GJQsqaUBKTNV-1">
          <mxGeometry x="260" y="500" width="160" height="30" as="geometry" />
        </mxCell>
        <mxCell id="DTrx7gqVWEQef8-JDWX5-142" value="NoteBook" style="swimlane;fontStyle=1;align=center;verticalAlign=top;childLayout=stackLayout;horizontal=1;startSize=26;horizontalStack=0;resizeParent=1;resizeParentMax=0;resizeLast=0;collapsible=1;marginBottom=0;whiteSpace=wrap;html=1;" vertex="1" parent="WIyWlLk6GJQsqaUBKTNV-1">
          <mxGeometry x="850" y="320" width="160" height="120" as="geometry" />
        </mxCell>
        <mxCell id="DTrx7gqVWEQef8-JDWX5-143" value="----" style="text;strokeColor=none;fillColor=none;align=left;verticalAlign=top;spacingLeft=4;spacingRight=4;overflow=hidden;rotatable=0;points=[[0,0.5],[1,0.5]];portConstraint=eastwest;whiteSpace=wrap;html=1;" vertex="1" parent="DTrx7gqVWEQef8-JDWX5-142">
          <mxGeometry y="26" width="160" height="26" as="geometry" />
        </mxCell>
        <mxCell id="DTrx7gqVWEQef8-JDWX5-144" value="" style="line;strokeWidth=1;fillColor=none;align=left;verticalAlign=middle;spacingTop=-1;spacingLeft=3;spacingRight=3;rotatable=0;labelPosition=right;points=[];portConstraint=eastwest;strokeColor=inherit;" vertex="1" parent="DTrx7gqVWEQef8-JDWX5-142">
          <mxGeometry y="52" width="160" height="8" as="geometry" />
        </mxCell>
        <mxCell id="DTrx7gqVWEQef8-JDWX5-145" value="change_note()" style="text;strokeColor=none;fillColor=none;align=left;verticalAlign=top;spacingLeft=4;spacingRight=4;overflow=hidden;rotatable=0;points=[[0,0.5],[1,0.5]];portConstraint=eastwest;whiteSpace=wrap;html=1;" vertex="1" parent="DTrx7gqVWEQef8-JDWX5-142">
          <mxGeometry y="60" width="160" height="26" as="geometry" />
        </mxCell>
        <mxCell id="DTrx7gqVWEQef8-JDWX5-146" value="add_tags()" style="html=1;whiteSpace=wrap;align=left;" vertex="1" parent="DTrx7gqVWEQef8-JDWX5-142">
          <mxGeometry y="86" width="160" height="34" as="geometry" />
        </mxCell>
        <mxCell id="DTrx7gqVWEQef8-JDWX5-147" value="del_tags()" style="html=1;whiteSpace=wrap;align=left;" vertex="1" parent="WIyWlLk6GJQsqaUBKTNV-1">
          <mxGeometry x="850" y="440" width="160" height="30" as="geometry" />
        </mxCell>
        <mxCell id="DTrx7gqVWEQef8-JDWX5-148" value="create_note()" style="html=1;whiteSpace=wrap;align=left;" vertex="1" parent="WIyWlLk6GJQsqaUBKTNV-1">
          <mxGeometry x="850" y="470" width="160" height="30" as="geometry" />
        </mxCell>
        <mxCell id="DTrx7gqVWEQef8-JDWX5-149" value="del_note()" style="html=1;whiteSpace=wrap;align=left;" vertex="1" parent="WIyWlLk6GJQsqaUBKTNV-1">
          <mxGeometry x="850" y="500" width="160" height="30" as="geometry" />
        </mxCell>
        <mxCell id="DTrx7gqVWEQef8-JDWX5-150" value="get_tag_notes()" style="html=1;whiteSpace=wrap;align=left;" vertex="1" parent="WIyWlLk6GJQsqaUBKTNV-1">
          <mxGeometry x="850" y="530" width="160" height="30" as="geometry" />
        </mxCell>
        <mxCell id="DTrx7gqVWEQef8-JDWX5-151" value="search_notes_by_text_tags()" style="html=1;whiteSpace=wrap;align=left;" vertex="1" parent="WIyWlLk6GJQsqaUBKTNV-1">
          <mxGeometry x="850" y="560" width="160" height="30" as="geometry" />
        </mxCell>
        <mxCell id="DTrx7gqVWEQef8-JDWX5-152" value="iterator()" style="html=1;whiteSpace=wrap;align=left;" vertex="1" parent="WIyWlLk6GJQsqaUBKTNV-1">
          <mxGeometry x="850" y="590" width="160" height="30" as="geometry" />
        </mxCell>
        <mxCell id="DTrx7gqVWEQef8-JDWX5-153" value="find_notes()" style="html=1;whiteSpace=wrap;align=left;" vertex="1" parent="WIyWlLk6GJQsqaUBKTNV-1">
          <mxGeometry x="850" y="620" width="160" height="30" as="geometry" />
        </mxCell>
        <mxCell id="DTrx7gqVWEQef8-JDWX5-154" value="save_to_file()" style="html=1;whiteSpace=wrap;align=left;" vertex="1" parent="WIyWlLk6GJQsqaUBKTNV-1">
          <mxGeometry x="850" y="650" width="160" height="30" as="geometry" />
        </mxCell>
        <mxCell id="DTrx7gqVWEQef8-JDWX5-155" value="load_file()" style="html=1;whiteSpace=wrap;align=left;" vertex="1" parent="WIyWlLk6GJQsqaUBKTNV-1">
          <mxGeometry x="850" y="680" width="160" height="30" as="geometry" />
        </mxCell>
        <mxCell id="DTrx7gqVWEQef8-JDWX5-161" value="_record_generator()" style="html=1;whiteSpace=wrap;align=left;" vertex="1" parent="WIyWlLk6GJQsqaUBKTNV-1">
          <mxGeometry x="260" y="530" width="160" height="30" as="geometry" />
        </mxCell>
        <mxCell id="DTrx7gqVWEQef8-JDWX5-163" value="" style="endArrow=open;html=1;endSize=12;startArrow=diamondThin;startSize=14;startFill=1;edgeStyle=orthogonalEdgeStyle;align=left;verticalAlign=bottom;rounded=0;" edge="1" parent="WIyWlLk6GJQsqaUBKTNV-1">
          <mxGeometry x="-1" y="3" relative="1" as="geometry">
            <mxPoint x="339" y="294" as="sourcePoint" />
            <mxPoint x="339" y="244" as="targetPoint" />
          </mxGeometry>
        </mxCell>
        <mxCell id="DTrx7gqVWEQef8-JDWX5-164" value="" style="endArrow=none;html=1;edgeStyle=orthogonalEdgeStyle;rounded=0;" edge="1" parent="WIyWlLk6GJQsqaUBKTNV-1">
          <mxGeometry relative="1" as="geometry">
            <mxPoint x="-60" y="240" as="sourcePoint" />
            <mxPoint x="600" y="240" as="targetPoint" />
          </mxGeometry>
        </mxCell>
        <mxCell id="DTrx7gqVWEQef8-JDWX5-167" value="" style="endArrow=none;html=1;edgeStyle=orthogonalEdgeStyle;rounded=0;entryX=0.5;entryY=1;entryDx=0;entryDy=0;" edge="1" parent="WIyWlLk6GJQsqaUBKTNV-1" target="DTrx7gqVWEQef8-JDWX5-27">
          <mxGeometry relative="1" as="geometry">
            <mxPoint x="600" y="240" as="sourcePoint" />
            <mxPoint x="680" y="240" as="targetPoint" />
          </mxGeometry>
        </mxCell>
        <mxCell id="DTrx7gqVWEQef8-JDWX5-170" value="" style="endArrow=none;html=1;edgeStyle=orthogonalEdgeStyle;rounded=0;entryX=0.5;entryY=1;entryDx=0;entryDy=0;" edge="1" parent="WIyWlLk6GJQsqaUBKTNV-1" target="DTrx7gqVWEQef8-JDWX5-12">
          <mxGeometry relative="1" as="geometry">
            <mxPoint x="-60" y="240" as="sourcePoint" />
            <mxPoint y="220" as="targetPoint" />
          </mxGeometry>
        </mxCell>
        <mxCell id="DTrx7gqVWEQef8-JDWX5-173" value="" style="endArrow=none;html=1;edgeStyle=orthogonalEdgeStyle;rounded=0;entryX=0.5;entryY=1;entryDx=0;entryDy=0;" edge="1" parent="WIyWlLk6GJQsqaUBKTNV-1" target="DTrx7gqVWEQef8-JDWX5-14">
          <mxGeometry relative="1" as="geometry">
            <mxPoint x="120" y="240" as="sourcePoint" />
            <mxPoint x="170" y="220" as="targetPoint" />
          </mxGeometry>
        </mxCell>
        <mxCell id="DTrx7gqVWEQef8-JDWX5-182" value="" style="endArrow=none;html=1;edgeStyle=orthogonalEdgeStyle;rounded=0;exitX=0.5;exitY=1;exitDx=0;exitDy=0;" edge="1" parent="WIyWlLk6GJQsqaUBKTNV-1" source="DTrx7gqVWEQef8-JDWX5-19">
          <mxGeometry relative="1" as="geometry">
            <mxPoint x="390" y="210" as="sourcePoint" />
            <mxPoint x="440" y="240" as="targetPoint" />
          </mxGeometry>
        </mxCell>
        <mxCell id="DTrx7gqVWEQef8-JDWX5-189" value="" style="endArrow=none;html=1;edgeStyle=orthogonalEdgeStyle;rounded=0;" edge="1" parent="WIyWlLk6GJQsqaUBKTNV-1">
          <mxGeometry relative="1" as="geometry">
            <mxPoint x="290" y="211" as="sourcePoint" />
            <mxPoint x="290" y="240" as="targetPoint" />
          </mxGeometry>
        </mxCell>
        <mxCell id="DTrx7gqVWEQef8-JDWX5-196" value="1" style="endArrow=open;html=1;endSize=12;startArrow=diamondThin;startSize=14;startFill=1;edgeStyle=orthogonalEdgeStyle;align=left;verticalAlign=bottom;rounded=0;exitX=-0.037;exitY=0.367;exitDx=0;exitDy=0;exitPerimeter=0;" edge="1" parent="WIyWlLk6GJQsqaUBKTNV-1" source="DTrx7gqVWEQef8-JDWX5-139">
          <mxGeometry x="-1" y="3" relative="1" as="geometry">
            <mxPoint x="160" y="600" as="sourcePoint" />
            <mxPoint x="130" y="480" as="targetPoint" />
          </mxGeometry>
        </mxCell>
        <mxCell id="DTrx7gqVWEQef8-JDWX5-205" value="" style="endArrow=open;html=1;endSize=12;startArrow=diamondThin;startSize=14;startFill=1;edgeStyle=orthogonalEdgeStyle;align=left;verticalAlign=bottom;rounded=0;" edge="1" parent="WIyWlLk6GJQsqaUBKTNV-1">
          <mxGeometry x="-1" y="3" relative="1" as="geometry">
            <mxPoint x="20" y="240" as="sourcePoint" />
            <mxPoint x="20" y="290" as="targetPoint" />
            <Array as="points">
              <mxPoint x="20" y="270" />
              <mxPoint x="20" y="270" />
            </Array>
          </mxGeometry>
        </mxCell>
        <mxCell id="DTrx7gqVWEQef8-JDWX5-206" value="" style="endArrow=open;html=1;endSize=12;startArrow=diamondThin;startSize=14;startFill=1;edgeStyle=orthogonalEdgeStyle;align=left;verticalAlign=bottom;rounded=0;" edge="1" parent="WIyWlLk6GJQsqaUBKTNV-1">
          <mxGeometry x="-1" y="3" relative="1" as="geometry">
            <mxPoint x="920" y="320" as="sourcePoint" />
            <mxPoint x="920" y="280" as="targetPoint" />
            <Array as="points">
              <mxPoint x="920" y="300" />
              <mxPoint x="920" y="300" />
            </Array>
          </mxGeometry>
        </mxCell>
        <mxCell id="DTrx7gqVWEQef8-JDWX5-207" value="" style="endArrow=none;html=1;edgeStyle=orthogonalEdgeStyle;rounded=0;" edge="1" parent="WIyWlLk6GJQsqaUBKTNV-1">
          <mxGeometry relative="1" as="geometry">
            <mxPoint x="810" y="280" as="sourcePoint" />
            <mxPoint x="1060" y="280" as="targetPoint" />
          </mxGeometry>
        </mxCell>
        <mxCell id="DTrx7gqVWEQef8-JDWX5-217" value="" style="endArrow=none;html=1;edgeStyle=orthogonalEdgeStyle;rounded=0;entryX=0.436;entryY=1.133;entryDx=0;entryDy=0;entryPerimeter=0;" edge="1" parent="WIyWlLk6GJQsqaUBKTNV-1" target="DTrx7gqVWEQef8-JDWX5-73">
          <mxGeometry relative="1" as="geometry">
            <mxPoint x="800" y="280" as="sourcePoint" />
            <mxPoint x="780" y="270" as="targetPoint" />
          </mxGeometry>
        </mxCell>
        <mxCell id="DTrx7gqVWEQef8-JDWX5-223" value="" style="endArrow=none;html=1;edgeStyle=orthogonalEdgeStyle;rounded=0;" edge="1" parent="WIyWlLk6GJQsqaUBKTNV-1">
          <mxGeometry relative="1" as="geometry">
            <mxPoint x="1040" y="270" as="sourcePoint" />
            <mxPoint x="1040" y="270" as="targetPoint" />
            <Array as="points">
              <mxPoint x="1040" y="270" />
              <mxPoint x="1040" y="270" />
            </Array>
          </mxGeometry>
        </mxCell>
        <mxCell id="DTrx7gqVWEQef8-JDWX5-224" value="parent" style="edgeLabel;resizable=0;html=1;align=left;verticalAlign=bottom;" connectable="0" vertex="1" parent="DTrx7gqVWEQef8-JDWX5-223">
          <mxGeometry x="-1" relative="1" as="geometry" />
        </mxCell>
        <mxCell id="DTrx7gqVWEQef8-JDWX5-225" value="child" style="edgeLabel;resizable=0;html=1;align=right;verticalAlign=bottom;" connectable="0" vertex="1" parent="DTrx7gqVWEQef8-JDWX5-223">
          <mxGeometry x="1" relative="1" as="geometry" />
        </mxCell>
        <mxCell id="DTrx7gqVWEQef8-JDWX5-226" value="" style="endArrow=none;html=1;edgeStyle=orthogonalEdgeStyle;rounded=0;" edge="1" parent="WIyWlLk6GJQsqaUBKTNV-1">
          <mxGeometry relative="1" as="geometry">
            <mxPoint x="1050" y="260" as="sourcePoint" />
            <mxPoint x="1050" y="280" as="targetPoint" />
            <Array as="points">
              <mxPoint x="1050" y="260" />
              <mxPoint x="1050" y="230" />
              <mxPoint x="1051" y="230" />
              <mxPoint x="1051" y="260" />
              <mxPoint x="1050" y="260" />
            </Array>
          </mxGeometry>
        </mxCell>
      </root>
    </mxGraphModel>
  </diagram>
</mxfile>
